ffmpeg started on 2025-05-02 at 14:07:22
Report written to "D:\Convert\FFMetrics\reports\ssim_report-6.txt"
Log level: 32
Command line:
ffmpeg -hide_banner -nostdin -i "G:\\\xc0\xed\xe8\xec\xe5\\\xce\xed\xe3\xee\xe8\xed\xe3\xe8\\!_35_\xcb\xe5\xf2\xee_2024\\JamClub\\\xcf\xee\xf7\xe5\xec\xf3 \xe2\xf1\xe5 \xe7\xe0\xe1\xfb\xeb\xe8 \xec\xee\xe9 \xec\xe8\xf0\\JamClub_Naze_Boku_no_Sekai_o_Dare_mo_Oboeteinai_no_ka_02_1080p_HEVC.mkv" -i "G:\\\xc0\xed\xe8\xec\xe5\\\xce\xed\xe3\xee\xe8\xed\xe3\xe8\\!_35_\xcb\xe5\xf2\xee_2024\\JamClub\\\xcf\xee\xf7\xe5\xec\xf3 \xe2\xf1\xe5 \xe7\xe0\xe1\xfb\xeb\xe8 \xec\xee\xe9 \xec\xe8\xf0\\JamClub_Naze_Boku_no_Sekai_o_Dare_mo_Oboeteinai_no_ka_02_1080p.mp4" -lavfi "[0:v]settb=AVTB,setpts=PTS-STARTPTS,format=pix_fmts=yuv420p10,fps=24000/1001,scale=1920:1080:flags=bicubic[main];[1:v]settb=AVTB,setpts=PTS-STARTPTS,format=pix_fmts=yuv420p,fps=24000/1001,scale=1920:1080:flags=bicubic[ref];[main][ref]ssim=eof_action=endall:stats_file='D\\:/Convert/FFMetrics/logs/ssim_logfile-6.txt'" -f null -
Input #0, matroska,webm, from 'G:\Аниме\Онгоинги\!_35_Лето_2024\JamClub\Почему все забыли мой мир\JamClub_Naze_Boku_no_Sekai_o_Dare_mo_Oboeteinai_no_ka_02_1080p_HEVC.mkv':
  Metadata:
    COMPATIBLE_BRANDS: isomiso2avc1mp41
    MAJOR_BRAND     : isom
    MINOR_VERSION   : 512
    ENCODER         : Lavf61.7.100
  Duration: 00:24:02.28, start: -0.001000, bitrate: 1260 kb/s
  Stream #0:0: Video: hevc (Main 10), yuv420p10le(tv, bt709, progressive), 1920x1080 [SAR 1:1 DAR 16:9], 23.98 fps, 23.98 tbr, 1k tbn (default)
      Metadata:
        HANDLER_NAME    : VideoHandler
        VENDOR_ID       : [0][0][0][0]
        ENCODER         : Lavc61.19.100 libx265
        BPS             : 1062982
        DURATION        : 00:24:02.148708333
        NUMBER_OF_FRAMES: 34578
        NUMBER_OF_BYTES : 191622333
        _STATISTICS_WRITING_APP: mkvpropedit v66.0.0 ('Josie') 64-bit
        _STATISTICS_WRITING_DATE_UTC: 2025-04-30 11:03:51
        _STATISTICS_TAGS: BPS DURATION NUMBER_OF_FRAMES NUMBER_OF_BYTES
  Stream #0:1(eng): Audio: aac (LC), 48000 Hz, stereo, fltp (default)
      Metadata:
        HANDLER_NAME    : SoundHandler
        VENDOR_ID       : [0][0][0][0]
        ENCODER         : Lavc61.19.100 aac
        BPS             : 193396
        DURATION        : 00:24:02.243000000
        NUMBER_OF_FRAMES: 67606
        NUMBER_OF_BYTES : 34865506
        _STATISTICS_WRITING_APP: mkvpropedit v66.0.0 ('Josie') 64-bit
        _STATISTICS_WRITING_DATE_UTC: 2025-04-30 11:03:51
        _STATISTICS_TAGS: BPS DURATION NUMBER_OF_FRAMES NUMBER_OF_BYTES
Input #1, mov,mp4,m4a,3gp,3g2,mj2, from 'G:\Аниме\Онгоинги\!_35_Лето_2024\JamClub\Почему все забыли мой мир\JamClub_Naze_Boku_no_Sekai_o_Dare_mo_Oboeteinai_no_ka_02_1080p.mp4':
  Metadata:
    major_brand     : isom
    minor_version   : 512
    compatible_brands: isomiso2avc1mp41
    encoder         : Lavf60.16.100
  Duration: 00:24:02.26, start: 0.000000, bitrate: 3931 kb/s
  Stream #1:0[0x1](und): Video: h264 (High) (avc1 / 0x31637661), yuv420p(progressive), 1920x1080 [SAR 1:1 DAR 16:9], 3733 kb/s, 23.98 fps, 23.98 tbr, 90k tbn (default)
      Metadata:
        handler_name    : VideoHandler
        vendor_id       : [0][0][0][0]
  Stream #1:1[0x2](eng): Audio: aac (LC) (mp4a / 0x6134706D), 48000 Hz, stereo, fltp, 191 kb/s (default)
      Metadata:
        handler_name    : SoundHandler
        vendor_id       : [0][0][0][0]
Stream mapping:
  Stream #0:0 (hevc) -> settb:default
  Stream #1:0 (h264) -> settb:default
  ssim:default -> Stream #0:0 (wrapped_avframe)
  Stream #0:1 -> #0:1 (aac (native) -> pcm_s16le (native))
Output #0, null, to 'pipe:':
  Metadata:
    COMPATIBLE_BRANDS: isomiso2avc1mp41
    MAJOR_BRAND     : isom
    MINOR_VERSION   : 512
    encoder         : Lavf61.7.100
  Stream #0:0: Video: wrapped_avframe, yuv420p10le(tv, bt709, progressive), 1920x1080 [SAR 1:1 DAR 16:9], q=2-31, 200 kb/s, 23.98 fps, 23.98 tbn
      Metadata:
        encoder         : Lavc61.19.100 wrapped_avframe
  Stream #0:1(eng): Audio: pcm_s16le, 48000 Hz, stereo, s16, 1536 kb/s (default)
      Metadata:
        HANDLER_NAME    : SoundHandler
        VENDOR_ID       : [0][0][0][0]
        _STATISTICS_TAGS: BPS DURATION NUMBER_OF_FRAMES NUMBER_OF_BYTES
        BPS             : 193396
        DURATION        : 00:24:02.243000000
        NUMBER_OF_FRAMES: 67606
        NUMBER_OF_BYTES : 34865506
        _STATISTICS_WRITING_APP: mkvpropedit v66.0.0 ('Josie') 64-bit
        _STATISTICS_WRITING_DATE_UTC: 2025-04-30 11:03:51
        encoder         : Lavc61.19.100 pcm_s16le
frame=  112 fps=0.0 q=-0.0 size=N/A time=00:00:04.67 bitrate=N/A speed=9.14x    frame=  270 fps=265 q=-0.0 size=N/A time=00:00:11.26 bitrate=N/A speed=11.1x    frame=  476 fps=308 q=-0.0 size=N/A time=00:00:19.85 bitrate=N/A speed=12.8x    frame=  713 fps=347 q=-0.0 size=N/A time=00:00:29.73 bitrate=N/A speed=14.5x    frame=  966 fps=376 q=-0.0 size=N/A time=00:00:40.29 bitrate=N/A speed=15.7x    frame= 1255 fps=406 q=-0.0 size=N/A time=00:00:52.34 bitrate=N/A speed=16.9x    frame= 1520 fps=422 q=-0.0 size=N/A time=00:01:03.39 bitrate=N/A speed=17.6x    frame= 1756 fps=427 q=-0.0 size=N/A time=00:01:13.23 bitrate=N/A speed=17.8x    frame= 2010 fps=433 q=-0.0 size=N/A time=00:01:23.83 bitrate=N/A speed=18.1x    frame= 2264 fps=440 q=-0.0 size=N/A time=00:01:34.42 bitrate=N/A speed=18.3x    frame= 2513 fps=443 q=-0.0 size=N/A time=00:01:44.81 bitrate=N/A speed=18.5x    frame= 2724 fps=441 q=-0.0 size=N/A time=00:01:53.61 bitrate=N/A speed=18.4x    frame= 2949 fps=441 q=-0.0 size=N/A time=00:02:02.99 bitrate=N/A speed=18.4x    frame= 3157 fps=437 q=-0.0 size=N/A time=00:02:11.67 bitrate=N/A speed=18.2x    frame= 3388 fps=439 q=-0.0 size=N/A time=00:02:21.30 bitrate=N/A speed=18.3x    frame= 3633 fps=441 q=-0.0 size=N/A time=00:02:31.52 bitrate=N/A speed=18.4x    frame= 3808 fps=435 q=-0.0 size=N/A time=00:02:38.82 bitrate=N/A speed=18.1x    frame= 4022 fps=434 q=-0.0 size=N/A time=00:02:47.75 bitrate=N/A speed=18.1x    frame= 4222 fps=431 q=-0.0 size=N/A time=00:02:56.09 bitrate=N/A speed=  18x    frame= 4418 fps=429 q=-0.0 size=N/A time=00:03:04.26 bitrate=N/A speed=17.9x    frame= 4598 fps=425 q=-0.0 size=N/A time=00:03:11.77 bitrate=N/A speed=17.7x    frame= 4772 fps=421 q=-0.0 size=N/A time=00:03:19.03 bitrate=N/A speed=17.5x    frame= 4969 fps=419 q=-0.0 size=N/A time=00:03:27.24 bitrate=N/A speed=17.5x    frame= 5232 fps=423 q=-0.0 size=N/A time=00:03:38.21 bitrate=N/A speed=17.6x    frame= 5427 fps=421 q=-0.0 size=N/A time=00:03:46.35 bitrate=N/A speed=17.6x    frame= 5665 fps=423 q=-0.0 size=N/A time=00:03:56.27 bitrate=N/A speed=17.6x    frame= 5888 fps=423 q=-0.0 size=N/A time=00:04:05.57 bitrate=N/A speed=17.6x    frame= 6095 fps=422 q=-0.0 size=N/A time=00:04:14.21 bitrate=N/A speed=17.6x    frame= 6287 fps=420 q=-0.0 size=N/A time=00:04:22.22 bitrate=N/A speed=17.5x    frame= 6464 fps=418 q=-0.0 size=N/A time=00:04:29.60 bitrate=N/A speed=17.4x    frame= 6662 fps=417 q=-0.0 size=N/A time=00:04:37.86 bitrate=N/A speed=17.4x    frame= 6871 fps=416 q=-0.0 size=N/A time=00:04:46.57 bitrate=N/A speed=17.4x    frame= 7062 fps=415 q=-0.0 size=N/A time=00:04:54.54 bitrate=N/A speed=17.3x    frame= 7315 fps=417 q=-0.0 size=N/A time=00:05:05.09 bitrate=N/A speed=17.4x    frame= 7579 fps=420 q=-0.0 size=N/A time=00:05:16.10 bitrate=N/A speed=17.5x    frame= 7854 fps=423 q=-0.0 size=N/A time=00:05:27.57 bitrate=N/A speed=17.7x    frame= 8127 fps=426 q=-0.0 size=N/A time=00:05:38.96 bitrate=N/A speed=17.8x    frame= 8399 fps=429 q=-0.0 size=N/A time=00:05:50.30 bitrate=N/A speed=17.9x    frame= 8667 fps=431 q=-0.0 size=N/A time=00:06:01.48 bitrate=N/A speed=  18x    frame= 8944 fps=434 q=-0.0 size=N/A time=00:06:13.03 bitrate=N/A speed=18.1x    frame= 9215 fps=436 q=-0.0 size=N/A time=00:06:24.34 bitrate=N/A speed=18.2x    frame= 9485 fps=438 q=-0.0 size=N/A time=00:06:35.60 bitrate=N/A speed=18.3x    frame= 9706 fps=438 q=-0.0 size=N/A time=00:06:44.82 bitrate=N/A speed=18.3x    frame= 9914 fps=437 q=-0.0 size=N/A time=00:06:53.49 bitrate=N/A speed=18.2x    frame=10151 fps=438 q=-0.0 size=N/A time=00:07:03.38 bitrate=N/A speed=18.3x    frame=10353 fps=436 q=-0.0 size=N/A time=00:07:11.80 bitrate=N/A speed=18.2x    frame=10544 fps=435 q=-0.0 size=N/A time=00:07:19.77 bitrate=N/A speed=18.2x    frame=10757 fps=435 q=-0.0 size=N/A time=00:07:28.65 bitrate=N/A speed=18.1x    frame=10967 fps=434 q=-0.0 size=N/A time=00:07:37.41 bitrate=N/A speed=18.1x    frame=11181 fps=434 q=-0.0 size=N/A time=00:07:46.34 bitrate=N/A speed=18.1x    frame=11389 fps=433 q=-0.0 size=N/A time=00:07:55.01 bitrate=N/A speed=18.1x    frame=11602 fps=433 q=-0.0 size=N/A time=00:08:03.90 bitrate=N/A speed=  18x    frame=11847 fps=434 q=-0.0 size=N/A time=00:08:14.11 bitrate=N/A speed=18.1x    frame=12080 fps=434 q=-0.0 size=N/A time=00:08:23.83 bitrate=N/A speed=18.1x    frame=12284 fps=433 q=-0.0 size=N/A time=00:08:32.34 bitrate=N/A speed=18.1x    frame=12509 fps=433 q=-0.0 size=N/A time=00:08:41.72 bitrate=N/A speed=18.1x    frame=12708 fps=432 q=-0.0 size=N/A time=00:08:50.02 bitrate=N/A speed=  18x    frame=12939 fps=433 q=-0.0 size=N/A time=00:08:59.66 bitrate=N/A speed=18.1x    frame=13210 fps=434 q=-0.0 size=N/A time=00:09:10.96 bitrate=N/A speed=18.1x    frame=13468 fps=435 q=-0.0 size=N/A time=00:09:21.72 bitrate=N/A speed=18.2x    frame=13725 fps=437 q=-0.0 size=N/A time=00:09:32.44 bitrate=N/A speed=18.2x    frame=13984 fps=437 q=-0.0 size=N/A time=00:09:43.24 bitrate=N/A speed=18.2x    frame=14238 fps=438 q=-0.0 size=N/A time=00:09:53.84 bitrate=N/A speed=18.3x    frame=14504 fps=439 q=-0.0 size=N/A time=00:10:04.93 bitrate=N/A speed=18.3x    frame=14780 fps=441 q=-0.0 size=N/A time=00:10:16.44 bitrate=N/A speed=18.4x    frame=15061 fps=442 q=-0.0 size=N/A time=00:10:28.16 bitrate=N/A speed=18.5x    frame=15322 fps=443 q=-0.0 size=N/A time=00:10:39.05 bitrate=N/A speed=18.5x    frame=15590 fps=445 q=-0.0 size=N/A time=00:10:50.23 bitrate=N/A speed=18.5x    frame=15873 fps=446 q=-0.0 size=N/A time=00:11:02.03 bitrate=N/A speed=18.6x    frame=16112 fps=446 q=-0.0 size=N/A time=00:11:12.00 bitrate=N/A speed=18.6x    frame=16341 fps=446 q=-0.0 size=N/A time=00:11:21.55 bitrate=N/A speed=18.6x    frame=16587 fps=447 q=-0.0 size=N/A time=00:11:31.81 bitrate=N/A speed=18.6x    frame=16832 fps=447 q=-0.0 size=N/A time=00:11:42.03 bitrate=N/A speed=18.6x    frame=17051 fps=447 q=-0.0 size=N/A time=00:11:51.16 bitrate=N/A speed=18.6x    frame=17289 fps=447 q=-0.0 size=N/A time=00:12:01.09 bitrate=N/A speed=18.6x    frame=17529 fps=447 q=-0.0 size=N/A time=00:12:11.10 bitrate=N/A speed=18.6x    frame=17764 fps=447 q=-0.0 size=N/A time=00:12:20.90 bitrate=N/A speed=18.7x    frame=17958 fps=446 q=-0.0 size=N/A time=00:12:28.99 bitrate=N/A speed=18.6x    frame=18219 fps=447 q=-0.0 size=N/A time=00:12:39.88 bitrate=N/A speed=18.7x    frame=18470 fps=448 q=-0.0 size=N/A time=00:12:50.35 bitrate=N/A speed=18.7x    frame=18715 fps=448 q=-0.0 size=N/A time=00:13:00.57 bitrate=N/A speed=18.7x    frame=18977 fps=449 q=-0.0 size=N/A time=00:13:11.49 bitrate=N/A speed=18.7x    frame=19260 fps=450 q=-0.0 size=N/A time=00:13:23.30 bitrate=N/A speed=18.8x    frame=19506 fps=450 q=-0.0 size=N/A time=00:13:33.56 bitrate=N/A speed=18.8x    frame=19784 fps=451 q=-0.0 size=N/A time=00:13:45.15 bitrate=N/A speed=18.8x    frame=20030 fps=451 q=-0.0 size=N/A time=00:13:55.41 bitrate=N/A speed=18.8x    frame=20275 fps=452 q=-0.0 size=N/A time=00:14:05.63 bitrate=N/A speed=18.8x    frame=20521 fps=452 q=-0.0 size=N/A time=00:14:15.89 bitrate=N/A speed=18.9x    frame=20784 fps=453 q=-0.0 size=N/A time=00:14:26.86 bitrate=N/A speed=18.9x    frame=21036 fps=453 q=-0.0 size=N/A time=00:14:37.37 bitrate=N/A speed=18.9x    frame=21279 fps=453 q=-0.0 size=N/A time=00:14:47.51 bitrate=N/A speed=18.9x    frame=21507 fps=453 q=-0.0 size=N/A time=00:14:57.02 bitrate=N/A speed=18.9x    frame=21728 fps=453 q=-0.0 size=N/A time=00:15:06.23 bitrate=N/A speed=18.9x    frame=22013 fps=454 q=-0.0 size=N/A time=00:15:18.12 bitrate=N/A speed=18.9x    frame=22221 fps=453 q=-0.0 size=N/A time=00:15:26.80 bitrate=N/A speed=18.9x    frame=22466 fps=454 q=-0.0 size=N/A time=00:15:37.01 bitrate=N/A speed=18.9x    frame=22685 fps=453 q=-0.0 size=N/A time=00:15:46.15 bitrate=N/A speed=18.9x    frame=22938 fps=454 q=-0.0 size=N/A time=00:15:56.70 bitrate=N/A speed=18.9x    frame=23183 fps=454 q=-0.0 size=N/A time=00:16:06.92 bitrate=N/A speed=18.9x    frame=23394 fps=453 q=-0.0 size=N/A time=00:16:15.72 bitrate=N/A speed=18.9x    frame=23598 fps=453 q=-0.0 size=N/A time=00:16:24.23 bitrate=N/A speed=18.9x    frame=23857 fps=453 q=-0.0 size=N/A time=00:16:35.03 bitrate=N/A speed=18.9x    frame=24114 fps=454 q=-0.0 size=N/A time=00:16:45.75 bitrate=N/A speed=18.9x    frame=24394 fps=455 q=-0.0 size=N/A time=00:16:57.43 bitrate=N/A speed=  19x    frame=24666 fps=455 q=-0.0 size=N/A time=00:17:08.77 bitrate=N/A speed=  19x    frame=24942 fps=456 q=-0.0 size=N/A time=00:17:20.28 bitrate=N/A speed=  19x    frame=25214 fps=457 q=-0.0 size=N/A time=00:17:31.63 bitrate=N/A speed=19.1x    frame=25466 fps=457 q=-0.0 size=N/A time=00:17:42.14 bitrate=N/A speed=19.1x    frame=25730 fps=458 q=-0.0 size=N/A time=00:17:53.15 bitrate=N/A speed=19.1x    frame=25999 fps=458 q=-0.0 size=N/A time=00:18:04.37 bitrate=N/A speed=19.1x    frame=26238 fps=458 q=-0.0 size=N/A time=00:18:14.34 bitrate=N/A speed=19.1x    frame=26512 fps=459 q=-0.0 size=N/A time=00:18:25.77 bitrate=N/A speed=19.1x    frame=26793 fps=460 q=-0.0 size=N/A time=00:18:37.49 bitrate=N/A speed=19.2x    frame=27055 fps=460 q=-0.0 size=N/A time=00:18:48.41 bitrate=N/A speed=19.2x    frame=27328 fps=461 q=-0.0 size=N/A time=00:18:59.80 bitrate=N/A speed=19.2x    frame=27574 fps=461 q=-0.0 size=N/A time=00:19:10.06 bitrate=N/A speed=19.2x    frame=27839 fps=461 q=-0.0 size=N/A time=00:19:21.11 bitrate=N/A speed=19.2x    frame=28093 fps=462 q=-0.0 size=N/A time=00:19:31.71 bitrate=N/A speed=19.2x    frame=28351 fps=462 q=-0.0 size=N/A time=00:19:42.47 bitrate=N/A speed=19.3x    frame=28640 fps=463 q=-0.0 size=N/A time=00:19:54.52 bitrate=N/A speed=19.3x    frame=28925 fps=463 q=-0.0 size=N/A time=00:20:06.41 bitrate=N/A speed=19.3x    frame=29203 fps=464 q=-0.0 size=N/A time=00:20:18.00 bitrate=N/A speed=19.3x    frame=29471 fps=464 q=-0.0 size=N/A time=00:20:29.18 bitrate=N/A speed=19.4x    frame=29756 fps=465 q=-0.0 size=N/A time=00:20:41.07 bitrate=N/A speed=19.4x    frame=30028 fps=466 q=-0.0 size=N/A time=00:20:52.41 bitrate=N/A speed=19.4x    frame=30284 fps=466 q=-0.0 size=N/A time=00:21:03.09 bitrate=N/A speed=19.4x    frame=30540 fps=466 q=-0.0 size=N/A time=00:21:13.77 bitrate=N/A speed=19.4x    frame=30795 fps=466 q=-0.0 size=N/A time=00:21:24.40 bitrate=N/A speed=19.4x    frame=31086 fps=467 q=-0.0 size=N/A time=00:21:36.54 bitrate=N/A speed=19.5x    frame=31349 fps=467 q=-0.0 size=N/A time=00:21:47.51 bitrate=N/A speed=19.5x    frame=31549 fps=467 q=-0.0 size=N/A time=00:21:55.85 bitrate=N/A speed=19.5x    frame=31739 fps=466 q=-0.0 size=N/A time=00:22:03.78 bitrate=N/A speed=19.4x    frame=32006 fps=466 q=-0.0 size=N/A time=00:22:14.91 bitrate=N/A speed=19.5x    frame=32292 fps=467 q=-0.0 size=N/A time=00:22:26.84 bitrate=N/A speed=19.5x    frame=32582 fps=468 q=-0.0 size=N/A time=00:22:38.94 bitrate=N/A speed=19.5x    frame=32854 fps=468 q=-0.0 size=N/A time=00:22:50.28 bitrate=N/A speed=19.5x    frame=33113 fps=468 q=-0.0 size=N/A time=00:23:01.08 bitrate=N/A speed=19.5x    frame=33370 fps=469 q=-0.0 size=N/A time=00:23:11.80 bitrate=N/A speed=19.5x    frame=33636 fps=469 q=-0.0 size=N/A time=00:23:22.90 bitrate=N/A speed=19.6x    frame=33890 fps=469 q=-0.0 size=N/A time=00:23:33.49 bitrate=N/A speed=19.6x    frame=34152 fps=469 q=-0.0 size=N/A time=00:23:44.42 bitrate=N/A speed=19.6x    frame=34402 fps=470 q=-0.0 size=N/A time=00:23:54.85 bitrate=N/A speed=19.6x    [Parsed_ssim_10 @ 000002304a0dc840] SSIM Y:0.994945 (22.963103) U:0.994142 (22.322792) V:0.994328 (22.462419) All:0.994709 (22.764289)
[out#0/null @ 0000023049b6c100] video:14857KiB audio:270424KiB subtitle:0KiB other streams:0KiB global headers:0KiB muxing overhead: unknown
frame=34577 fps=470 q=-0.0 Lsize=N/A time=00:24:02.14 bitrate=N/A speed=19.6x    
